<svg width="30" height="30" viewBox="0 0 30 30" fill="none" xmlns="http://www.w3.org/2000/svg">
    <path d="M23.894 17.2609C23.6098 17.2609 23.376 17.1667 23.1925 16.9784C23.0089 16.7902 22.9171 16.5569 22.9171 16.2785V13.2432H19.8818C19.5992 13.2432 19.3648 13.1485 19.1787 12.9592C18.9925 12.7699 18.8995 12.5353 18.8995 12.2554C18.8995 11.9713 18.9925 11.7374 19.1787 11.5539C19.3648 11.3703 19.5992 11.2785 19.8818 11.2785H22.9171V8.24317C22.9171 7.96061 23.0107 7.72626 23.1979 7.54011C23.3852 7.35394 23.6196 7.26086 23.9012 7.26086C24.1828 7.26086 24.4167 7.35394 24.6027 7.54011C24.7888 7.72626 24.8818 7.96061 24.8818 8.24317V11.2785H27.9171C28.1954 11.2785 28.4287 11.3721 28.617 11.5593C28.8053 11.7465 28.8995 11.981 28.8995 12.2626C28.8995 12.5442 28.8053 12.7781 28.617 12.9641C28.4287 13.1502 28.1954 13.2432 27.9171 13.2432H24.8818V16.2785C24.8818 16.5569 24.7871 16.7902 24.5978 16.9784C24.4085 17.1667 24.1738 17.2609 23.894 17.2609ZM11.2874 14.8716C9.85407 14.8716 8.68211 14.4172 7.77148 13.5083C6.86086 12.5994 6.40555 11.4296 6.40555 9.99877C6.40555 8.56796 6.8605 7.39761 7.77039 6.48774C8.68029 5.57786 9.85137 5.12292 11.2836 5.12292C12.7159 5.12292 13.887 5.57786 14.7969 6.48774C15.7067 7.39761 16.1617 8.56796 16.1617 9.99877C16.1617 11.4296 15.7071 12.5994 14.7979 13.5083C13.8888 14.4172 12.7186 14.8716 11.2874 14.8716ZM2.15758 25.284C1.85708 25.284 1.60454 25.1817 1.39995 24.977C1.19537 24.7725 1.09308 24.5199 1.09308 24.2194V22.1476C1.09308 21.3801 1.29102 20.6863 1.68689 20.0662C2.08281 19.446 2.62807 18.9799 3.32267 18.6678C4.89513 17.9753 6.29642 17.4872 7.52655 17.2035C8.75667 16.9197 10.0086 16.7778 11.2823 16.7778C12.5556 16.7778 13.8091 16.9197 15.0428 17.2035C16.2765 17.4872 17.6667 17.9753 19.2133 18.6678C19.9116 18.9944 20.463 19.4627 20.8675 20.0728C21.2719 20.6829 21.4742 21.3735 21.4742 22.1447V24.2194C21.4742 24.5199 21.3719 24.7725 21.1673 24.977C20.9627 25.1817 20.7101 25.284 20.4096 25.284H2.15758ZM3.22961 23.1549H19.3451V22.1746C19.3451 21.8442 19.2605 21.5292 19.0914 21.2295C18.9222 20.9298 18.663 20.7082 18.3138 20.5645C16.8754 19.8711 15.6468 19.4228 14.6281 19.2194C13.6093 19.0161 12.4945 18.9144 11.2836 18.9144C10.0828 18.9144 8.96919 19.0213 7.94292 19.235C6.91665 19.4488 5.67888 19.892 4.22961 20.5645C3.91213 20.7082 3.66609 20.9298 3.49148 21.2295C3.3169 21.5292 3.22961 21.8442 3.22961 22.1746V23.1549ZM11.2834 12.7425C12.0786 12.7425 12.7356 12.4835 13.2544 11.9655C13.7732 11.4474 14.0326 10.7915 14.0326 9.99752C14.0326 9.20154 13.7736 8.54497 13.2555 8.0278C12.7375 7.51061 12.0815 7.25202 11.2876 7.25202C10.4899 7.25202 9.83286 7.51073 9.31655 8.02814C8.80026 8.54554 8.54211 9.20077 8.54211 9.99383C8.54211 10.7889 8.80017 11.4458 9.3163 11.9645C9.83242 12.4832 10.4881 12.7425 11.2834 12.7425Z"/>
</svg>
