<svg width="36" height="36" viewBox="0 0 36 36" fill="none" xmlns="http://www.w3.org/2000/svg">
    <path d="M12.5356 28.7242C11.8209 28.7242 11.2164 28.4755 10.7221 27.9783C10.2278 27.481 9.9807 26.875 9.9807 26.1603V9.8307C9.9807 9.11602 10.2278 8.51005 10.7221 8.01277C11.2164 7.51547 11.8209 7.26682 12.5356 7.26682H19.0777C20.7815 7.26682 22.2471 7.81126 23.4746 8.90014C24.702 9.98899 25.3158 11.3424 25.3158 12.9603C25.3158 13.8625 25.0637 14.73 24.5596 15.5629C24.0556 16.3958 23.3332 17.0337 22.3924 17.4766V17.7196C23.5511 18.0994 24.4468 18.7633 25.0794 19.7111C25.712 20.659 26.0283 21.6685 26.0283 22.7397C26.0283 24.3918 25.378 25.8023 24.0774 26.9711C22.7769 28.1398 21.1948 28.7242 19.3312 28.7242H12.5356ZM13.4299 25.7486H19.0003C19.8606 25.7486 20.6632 25.4511 21.408 24.856C22.1528 24.2609 22.5253 23.4524 22.5253 22.4307C22.5253 21.434 22.1543 20.6366 21.4125 20.0385C20.6706 19.4404 19.8725 19.1413 19.0182 19.1413H13.4299V25.7486ZM13.4299 16.3158H18.7092C19.5484 16.3158 20.2956 16.0283 20.9511 15.4533C21.6065 14.8783 21.9342 14.1473 21.9342 13.2603C21.9342 12.3913 21.6125 11.6586 20.969 11.0621C20.3255 10.4656 19.5693 10.1674 18.7003 10.1674H13.4299V16.3158Z"/>
</svg>
