<svg width="22" height="20" viewBox="0 0 22 20" fill="none" xmlns="http://www.w3.org/2000/svg">
    <path d="M10.9865 15.7958C12.2955 15.7958 13.3924 15.3535 14.2771 14.4687C15.1618 13.584 15.6042 12.4871 15.6042 11.1781C15.6042 9.86909 15.1618 8.77673 14.2771 7.90104C13.3924 7.02534 12.2955 6.58749 10.9865 6.58749C9.67743 6.58749 8.58507 7.02534 7.70937 7.90104C6.83368 8.77673 6.39583 9.86909 6.39583 11.1781C6.39583 12.4871 6.83368 13.584 7.70937 14.4687C8.58507 15.3535 9.67743 15.7958 10.9865 15.7958ZM1.84995 19.9119C1.35163 19.9119 0.919518 19.729 0.553604 19.3631C0.187709 18.9971 0.00476074 18.565 0.00476074 18.0667V4.28953C0.00476074 3.8075 0.187709 3.37838 0.553604 3.00218C0.919518 2.62595 1.35163 2.43784 1.84995 2.43784H5.73405L7.22363 0.65034C7.38967 0.430153 7.59665 0.268439 7.84457 0.165197C8.09249 0.0619736 8.35693 0.0103607 8.63787 0.0103607H13.3686C13.648 0.0103607 13.911 0.0619736 14.1575 0.165197C14.404 0.268439 14.6103 0.430153 14.7764 0.65034L16.2659 2.43784H20.15C20.6321 2.43784 21.0612 2.62595 21.4374 3.00218C21.8136 3.37838 22.0017 3.8075 22.0017 4.28953V18.0667C22.0017 18.565 21.8136 18.9971 21.4374 19.3631C21.0612 19.729 20.6321 19.9119 20.15 19.9119H1.84995ZM20.15 18.0667V4.28953H1.84995V18.0667H20.15Z"/>
</svg>
