<svg width="22" height="22" viewBox="0 0 22 22" fill="none" xmlns="http://www.w3.org/2000/svg">
    <path d="M11 12.0978L14.1532 15.2511C14.3112 15.4091 14.4942 15.488 14.7022 15.488C14.9101 15.488 15.0931 15.408 15.2511 15.248C15.413 15.088 15.494 14.9046 15.494 14.6977C15.494 14.4907 15.413 14.3073 15.2511 14.1473L12.0978 11L15.2511 7.84674C15.4091 7.68876 15.489 7.50579 15.491 7.29782C15.493 7.08985 15.413 6.90688 15.2511 6.74892C15.0915 6.58695 14.9085 6.50597 14.7022 6.50597C14.4958 6.50597 14.3129 6.58695 14.1532 6.74892L11 9.90217L7.84675 6.74892C7.68876 6.59093 7.50679 6.51095 7.30082 6.50897C7.09484 6.50697 6.91286 6.58695 6.7549 6.74892C6.59293 6.90852 6.51195 7.09149 6.51195 7.29782C6.51195 7.50415 6.59293 7.68713 6.7549 7.84674L9.90217 11L6.74892 14.1532C6.59094 14.3112 6.51195 14.4932 6.51195 14.6992C6.51195 14.9052 6.59195 15.0871 6.75195 15.2451C6.91195 15.4071 7.09541 15.488 7.30232 15.488C7.50926 15.488 7.69272 15.4071 7.85272 15.2451L11 12.0978ZM11.0008 21.1494C9.60969 21.1494 8.29682 20.884 7.06222 20.353C5.82762 19.822 4.74918 19.0954 3.8269 18.1731C2.90461 17.2508 2.17798 16.1726 1.647 14.9386C1.11603 13.7045 0.850548 12.392 0.850548 11.0008C0.850548 9.59302 1.11603 8.27182 1.647 7.03722C2.17798 5.80262 2.9043 4.72824 3.82595 3.81407C4.74761 2.89992 5.82562 2.17646 7.05997 1.64369C8.29431 1.11093 9.60721 0.844543 10.9987 0.844543C12.4068 0.844543 13.7284 1.11078 14.9635 1.64324C16.1986 2.17569 17.273 2.89874 18.1869 3.81237C19.1007 4.72599 19.824 5.80018 20.3565 7.03494C20.8891 8.26971 21.1554 9.59139 21.1554 11C21.1554 12.3917 20.8891 13.7048 20.3563 14.9393C19.8235 16.1739 19.1001 17.252 18.1859 18.1738C17.2718 19.0956 16.1976 19.822 14.9636 20.353C13.7295 20.884 12.4086 21.1494 11.0008 21.1494Z" fill="#FC4F4F"/>
</svg>
