<svg width="37" height="15" viewBox="0 0 37 15" fill="none" xmlns="http://www.w3.org/2000/svg">
<path d="M1.70325 4.09728C1.22245 4.09728 0.818367 3.93619 0.491 3.61401C0.163667 3.29184 0 2.89413 0 2.4209C0 1.9477 0.163667 1.55091 0.491 1.23053C0.818367 0.910175 1.22245 0.75 1.70325 0.75H34.7033C35.1841 0.75 35.5881 0.913049 35.9155 1.23914C36.2428 1.56521 36.4065 1.96485 36.4065 2.43808C36.4065 2.91128 36.2428 3.30612 35.9155 3.62258C35.5881 3.93905 35.1841 4.09728 34.7033 4.09728H1.70325ZM7.70325 14.5073C7.22245 14.5073 6.81837 14.3462 6.491 14.024C6.16367 13.7018 6 13.3042 6 12.831C6 12.3577 6.16367 11.9629 6.491 11.6464C6.81837 11.33 7.22245 11.1718 7.70325 11.1718H28.7033C29.1841 11.1718 29.5881 11.3328 29.9155 11.655C30.2428 11.9772 30.4065 12.3749 30.4065 12.8481C30.4065 13.3213 30.2428 13.7162 29.9155 14.0326C29.5881 14.3491 29.1841 14.5073 28.7033 14.5073H7.70325Z" fill="#D6D6D6"/>
</svg>
