<svg width="52" height="50" viewBox="0 0 52 50" fill="none" xmlns="http://www.w3.org/2000/svg">
    <g clip-path="url(#clip0_14_5963)">
        <path fill-rule="evenodd" clip-rule="evenodd" d="M11.5121 25.2325C11.5121 23.6464 11.7896 22.1256 12.2855 20.6994L3.6108 14.415C1.9201 17.6715 0.967773 21.3411 0.967773 25.2325C0.967773 29.1208 1.91929 32.7878 3.60718 36.0423L12.277 29.7457C11.786 28.326 11.5121 26.8109 11.5121 25.2325Z" fill="#FBBC05"/>
        <path fill-rule="evenodd" clip-rule="evenodd" d="M26.7429 10.8035C30.3749 10.8035 33.6553 12.0244 36.2328 14.0221L43.7308 6.91862C39.1618 3.1448 33.3039 0.813965 26.7429 0.813965C16.5569 0.813965 7.8026 6.3402 3.61084 14.4151L12.2851 20.6995C14.2839 14.9436 19.9813 10.8035 26.7429 10.8035Z" fill="#EA4335"/>
        <path fill-rule="evenodd" clip-rule="evenodd" d="M26.7429 39.6616C19.9818 39.6616 14.2843 35.5215 12.2855 29.7656L3.61084 36.0488C7.8026 44.1249 16.5569 49.6511 26.7429 49.6511C33.0296 49.6511 39.0319 47.5332 43.5365 43.5652L35.3026 37.5262C32.9793 38.9146 30.0536 39.6616 26.7429 39.6616Z" fill="#34A853"/>
        <path fill-rule="evenodd" clip-rule="evenodd" d="M51.3461 25.2326C51.3461 23.7896 51.1117 22.2356 50.7602 20.793H26.7429V30.2273H40.5677C39.8764 33.4441 37.9951 35.9169 35.3026 37.5262L43.5365 43.5652C48.2684 39.3988 51.3461 33.1919 51.3461 25.2326Z" fill="#4285F4"/>
    </g>
    <defs>
        <clipPath id="clip0_14_5963">
            <rect width="51.4771" height="48.8372" fill="white" transform="translate(0.418457 0.813965)"/>
        </clipPath>
    </defs>
</svg>
