<svg width="38" height="38" viewBox="0 0 38 38" fill="none" xmlns="http://www.w3.org/2000/svg">
    <path d="M10.4405 30.3595C9.95366 30.3595 9.53966 30.1884 9.19853 29.8462C8.85738 29.504 8.6868 29.0887 8.6868 28.6003C8.6868 28.1145 8.85738 27.7032 9.19853 27.3666C9.53966 27.0299 9.95366 26.8616 10.4405 26.8616H14.0383L19.4741 10.8708H14.9909C14.5067 10.8708 14.0949 10.7006 13.7556 10.3602C13.4163 10.0198 13.2466 9.60675 13.2466 9.12095C13.2466 8.63519 13.4163 8.22397 13.7556 7.8873C14.0949 7.55063 14.5067 7.38229 14.9909 7.38229H26.8659C27.3501 7.38229 27.7619 7.55249 28.1012 7.89288C28.4405 8.23324 28.6102 8.64632 28.6102 9.13211C28.6102 9.61791 28.4405 10.0291 28.1012 10.3658C27.7619 10.7025 27.3501 10.8708 26.8659 10.8708H23.2681L17.8323 26.8616H22.3155C22.7997 26.8616 23.2115 27.0321 23.5508 27.3732C23.8901 27.7142 24.0598 28.1281 24.0598 28.6149C24.0598 29.1016 23.8901 29.5141 23.5508 29.8523C23.2115 30.1905 22.7997 30.3595 22.3155 30.3595H10.4405Z"/>
</svg>
