<svg width="40" height="40" viewBox="0 0 40 40" fill="none" xmlns="http://www.w3.org/2000/svg">
    <path d="M9.8206 36.75C9.00116 36.75 8.30538 36.4639 7.73327 35.8917C7.16113 35.3196 6.87506 34.6239 6.87506 33.8044V16.9648C6.87506 16.1371 7.16113 15.4392 7.73327 14.8712C8.30538 14.3033 9.00116 14.0193 9.8206 14.0193H12.2212V10.1956C12.2212 8.01044 12.9781 6.16075 14.4919 4.6465C16.0056 3.13225 17.8416 2.37512 19.9999 2.37512C22.1582 2.37512 23.9943 3.13225 25.5081 4.6465C27.0219 6.16075 27.7788 8.01044 27.7788 10.1956V14.0193H30.1794C30.9989 14.0193 31.6947 14.3033 32.2668 14.8712C32.8389 15.4392 33.125 16.1371 33.125 16.9648V33.8044C33.125 34.6239 32.8389 35.3196 32.2668 35.8917C31.6947 36.4639 30.9989 36.75 30.1794 36.75L9.8206 36.75ZM20.0104 28.5416C20.8689 28.5416 21.601 28.2415 22.2067 27.6412C22.8125 27.0409 23.1154 26.3186 23.1154 25.4742C23.1154 24.6559 22.8091 23.9241 22.1964 23.2789C21.5838 22.6336 20.8482 22.3109 19.9897 22.3109C19.1312 22.3109 18.3991 22.6347 17.7933 23.2822C17.1875 23.9297 16.8846 24.6695 16.8846 25.5017C16.8846 26.3339 17.191 27.0486 17.8036 27.6458C18.4163 28.243 19.1519 28.5416 20.0104 28.5416ZM14.6539 14.0193H25.3461V10.1956C25.3461 8.69433 24.8265 7.42105 23.7871 6.37575C22.7478 5.33041 21.4858 4.80775 20.001 4.80775C18.5162 4.80775 17.2538 5.33041 16.2139 6.37575C15.1739 7.42105 14.6539 8.69433 14.6539 10.1956V14.0193Z" fill="white"/>
</svg>
