<svg width="30" height="30" viewBox="0 0 30 30" fill="none" xmlns="http://www.w3.org/2000/svg">
    <path d="M4.6875 22.5C4.42188 22.5 4.19922 22.4096 4.01953 22.2289C3.83984 22.0482 3.75 21.8242 3.75 21.557C3.75 21.2898 3.83984 21.0677 4.01953 20.8906C4.19922 20.7135 4.42188 20.625 4.6875 20.625H25.3125C25.5781 20.625 25.8008 20.7154 25.9805 20.8961C26.1602 21.0768 26.25 21.3008 26.25 21.568C26.25 21.8352 26.1602 22.0573 25.9805 22.2344C25.8008 22.4115 25.5781 22.5 25.3125 22.5H4.6875ZM4.6875 15.9375C4.42188 15.9375 4.19922 15.8471 4.01953 15.6664C3.83984 15.4857 3.75 15.2617 3.75 14.9945C3.75 14.7273 3.83984 14.5052 4.01953 14.3281C4.19922 14.151 4.42188 14.0625 4.6875 14.0625H25.3125C25.5781 14.0625 25.8008 14.1529 25.9805 14.3336C26.1602 14.5143 26.25 14.7383 26.25 15.0055C26.25 15.2727 26.1602 15.4948 25.9805 15.6719C25.8008 15.849 25.5781 15.9375 25.3125 15.9375H4.6875ZM4.6875 9.375C4.42188 9.375 4.19922 9.28464 4.01953 9.10391C3.83984 8.92316 3.75 8.6992 3.75 8.43203C3.75 8.16484 3.83984 7.94271 4.01953 7.76562C4.19922 7.58854 4.42188 7.5 4.6875 7.5H25.3125C25.5781 7.5 25.8008 7.59036 25.9805 7.77109C26.1602 7.95184 26.25 8.1758 26.25 8.44297C26.25 8.71016 26.1602 8.93229 25.9805 9.10938C25.8008 9.28646 25.5781 9.375 25.3125 9.375H4.6875Z" fill="white"/>
</svg>
