<svg width="10" height="26" viewBox="0 0 10 26" fill="none" xmlns="http://www.w3.org/2000/svg">
    <path d="M12.3281 24.3234C11.9412 24.3234 11.6181 24.1932 11.359 23.9327C11.0998 23.6722 10.9703 23.3507 10.9703 22.9681C10.9703 22.5855 11.0998 22.2662 11.359 22.0104C11.6181 21.7545 11.9412 21.6266 12.3281 21.6266H28.1382C28.5181 21.6266 28.8393 21.7568 29.102 22.0173C29.3648 22.2778 29.4961 22.5993 29.4961 22.9819C29.4961 23.3645 29.3648 23.6838 29.102 23.9396C28.8393 24.1955 28.5181 24.3234 28.1382 24.3234H12.3281ZM12.3281 14.3484C11.9412 14.3484 11.6181 14.2182 11.359 13.9577C11.0998 13.6972 10.9703 13.3757 10.9703 12.9931C10.9703 12.6105 11.0998 12.2912 11.359 12.0354C11.6181 11.7795 11.9412 11.6516 12.3281 11.6516H28.1382C28.5181 11.6516 28.8393 11.7818 29.102 12.0423C29.3648 12.3028 29.4961 12.6243 29.4961 13.0069C29.4961 13.3895 29.3648 13.7088 29.102 13.9646C28.8393 14.2205 28.5181 14.3484 28.1382 14.3484H12.3281ZM12.3281 4.33382C11.9412 4.33382 11.6181 4.20358 11.359 3.94309C11.0998 3.68261 10.9703 3.36107 10.9703 2.97849C10.9703 2.59587 11.0998 2.27663 11.359 2.02077C11.6181 1.76493 11.9412 1.63701 12.3281 1.63701H28.1382C28.5181 1.63701 28.8393 1.76725 29.102 2.02774C29.3648 2.28822 29.4961 2.60975 29.4961 2.99234C29.4961 3.37495 29.3648 3.69419 29.102 3.95006C28.8393 4.2059 28.5181 4.33382 28.1382 4.33382H12.3281ZM3.38114 25.7785C2.6004 25.7785 1.93227 25.5128 1.37676 24.9813C0.821223 24.4498 0.543453 23.7869 0.543453 22.9925C0.543453 22.2041 0.815708 21.5368 1.36022 20.9907C1.9047 20.4445 2.57325 20.1715 3.36586 20.1715C4.15851 20.1715 4.81921 20.4501 5.34796 21.0074C5.87671 21.5647 6.14109 22.2347 6.14109 23.0173C6.14109 23.7781 5.87084 24.4285 5.33035 24.9685C4.78985 25.5085 4.14011 25.7785 3.38114 25.7785ZM3.38114 15.8035C2.6004 15.8035 1.93227 15.5288 1.37676 14.9792C0.821223 14.4297 0.543453 13.769 0.543453 12.9973C0.543453 12.2256 0.821975 11.5659 1.37902 11.0181C1.93603 10.4703 2.60491 10.1965 3.38566 10.1965C4.14465 10.1965 4.79363 10.4712 5.3326 11.0208C5.87159 11.5703 6.14109 12.231 6.14109 13.0027C6.14109 13.7744 5.87084 14.4341 5.33035 14.9819C4.78985 15.5297 4.14011 15.8035 3.38114 15.8035ZM3.34156 5.78894C2.57169 5.78894 1.91288 5.51417 1.36512 4.96462C0.817343 4.41507 0.543453 3.75444 0.543453 2.98272C0.543453 2.21103 0.818096 1.5513 1.36738 1.00352C1.91664 0.455763 2.5762 0.181885 3.34607 0.181885C4.11594 0.181885 4.77424 0.45666 5.32096 1.00621C5.86772 1.55576 6.14109 2.21639 6.14109 2.98811C6.14109 3.7598 5.86696 4.41953 5.31871 4.96731C4.77048 5.51506 4.11143 5.78894 3.34156 5.78894Z"/>
</svg>
