<svg width="22" height="29" viewBox="0 0 22 29" fill="none" xmlns="http://www.w3.org/2000/svg">
    <path d="M11.0005 17.3067C9.91714 17.3067 9.01051 16.9186 8.28062 16.1425C7.55073 15.3664 7.18579 14.4241 7.18579 13.3154V4.46811C7.18579 3.42316 7.55661 2.53212 8.29826 1.795C9.03988 1.05789 9.94044 0.689331 10.9999 0.689331C12.0594 0.689331 12.9614 1.05789 13.7059 1.795C14.4505 2.53212 14.8227 3.42316 14.8227 4.46811V13.3154C14.8227 14.4241 14.4565 15.3664 13.7241 16.1425C12.9918 16.9186 12.0839 17.3067 11.0005 17.3067ZM10.9956 28.1395C10.6669 28.1395 10.3929 28.028 10.1735 27.8049C9.95407 27.5817 9.84437 27.3053 9.84437 26.9754V23.2975C7.47401 23.0378 5.4514 22.0927 3.77654 20.4622C2.10171 18.8318 1.12314 16.8696 0.840819 14.5757C0.793597 14.2406 0.890604 13.9467 1.13184 13.6942C1.3731 13.4416 1.67877 13.3154 2.04885 13.3154C2.30741 13.3154 2.54272 13.4141 2.75477 13.6114C2.96682 13.8088 3.09928 14.0486 3.15215 14.3309C3.42316 16.266 4.2996 17.8722 5.78148 19.1495C7.26334 20.4268 9.00116 21.0655 10.995 21.0655C12.9887 21.0655 14.7283 20.4268 16.2135 19.1495C17.6988 17.8722 18.5769 16.266 18.8479 14.3309C18.9064 14.0427 19.0421 13.8014 19.2553 13.607C19.4683 13.4126 19.7101 13.3154 19.9806 13.3154C20.351 13.3154 20.6519 13.4416 20.8831 13.6942C21.1144 13.9467 21.2064 14.2406 21.1592 14.5757C20.8769 16.8696 19.8983 18.8318 18.2235 20.4622C16.5486 22.0927 14.526 23.0378 12.1557 23.2975V26.9754C12.1557 27.3053 12.0445 27.5817 11.8221 27.8049C11.5998 28.028 11.3243 28.1395 10.9956 28.1395ZM11.0009 14.8937C11.4118 14.8937 11.7479 14.7392 12.0093 14.4302C12.2706 14.1212 12.4013 13.7496 12.4013 13.3154V4.46925C12.4013 4.08632 12.2658 3.76275 11.9948 3.49855C11.7239 3.23436 11.3922 3.10227 11 3.10227C10.6078 3.10227 10.2762 3.23436 10.0052 3.49855C9.73424 3.76275 9.59876 4.08632 9.59876 4.46925V13.3154C9.59876 13.7496 9.72974 14.1212 9.99171 14.4302C10.2536 14.7392 10.59 14.8937 11.0009 14.8937Z" fill="#5F5AC9"/>
</svg>
