<svg width="17" height="24" viewBox="0 0 17 24" fill="none" xmlns="http://www.w3.org/2000/svg">
    <path d="M1.7852 23.0599C1.29729 23.0599 0.879606 22.8862 0.532158 22.5387C0.18471 22.1913 0.0109863 21.7736 0.0109863 21.2857V10.0957C0.0109863 9.60605 0.18471 9.1869 0.532158 8.83823C0.879606 8.48955 1.29729 8.31521 1.7852 8.31521H3.48359V5.95222C3.48359 4.55698 3.972 3.36898 4.94882 2.38823C5.92567 1.40749 7.10981 0.917114 8.50127 0.917114C9.89271 0.917114 11.0764 1.40749 12.0524 2.38823C13.0284 3.36898 13.5164 4.55698 13.5164 5.95222V8.31521H15.2148C15.7044 8.31521 16.1236 8.48955 16.4722 8.83823C16.8209 9.1869 16.9953 9.60605 16.9953 10.0957V21.2857C16.9953 21.7736 16.8209 22.1913 16.4722 22.5387C16.1236 22.8862 15.7044 23.0599 15.2148 23.0599H1.7852ZM1.7852 21.2857H15.2148V10.0957H1.7852V21.2857ZM8.50437 17.6959C9.05701 17.6959 9.52864 17.5046 9.91927 17.1221C10.3099 16.7397 10.5052 16.2799 10.5052 15.7428C10.5052 15.2219 10.3084 14.7488 9.91489 14.3235C9.52135 13.8981 9.04826 13.6855 8.49562 13.6855C7.94298 13.6855 7.47135 13.8981 7.08073 14.3235C6.6901 14.7488 6.49479 15.2263 6.49479 15.7558C6.49479 16.2853 6.69156 16.741 7.0851 17.123C7.47864 17.5049 7.95173 17.6959 8.50437 17.6959ZM5.25781 8.31521H11.7422V5.95365C11.7422 5.04414 11.4284 4.27408 10.8007 3.64347C10.1731 3.01288 9.40769 2.69758 8.50453 2.69758C7.60137 2.69758 6.83446 3.01288 6.2038 3.64347C5.57314 4.27408 5.25781 5.04414 5.25781 5.95365V8.31521Z" fill="#5F5AC9"/>
</svg>
