<svg width="21" height="24" viewBox="0 0 21 24" fill="none" xmlns="http://www.w3.org/2000/svg">
    <path d="M6.5 6.96875C6.5 9.17789 8.29086 10.9688 10.5 10.9688C12.7091 10.9688 14.5 9.17789 14.5 6.96875C14.5 4.75961 12.7091 2.96875 10.5 2.96875C8.29086 2.96875 6.5 4.75961 6.5 6.96875Z" fill="white" stroke="white" stroke-width="1.5"/>
    <path d="M4 16.2552C4 15.6892 4.3167 15.1709 4.82026 14.9127V14.9127C8.38599 13.0841 12.614 13.0841 16.1797 14.9127V14.9127C16.6833 15.1709 17 15.6892 17 16.2552V19.9639C17 21.0153 16.0354 21.8021 15.0054 21.5909V21.5909C12.0328 20.9811 8.96724 20.9811 5.99457 21.5909V21.5909C4.96461 21.8021 4 21.0153 4 19.9639V16.2552Z" fill="white" stroke="white" stroke-width="1.5"/>
</svg>
