<svg width="10" height="17" viewBox="0 0 10 17" fill="none" xmlns="http://www.w3.org/2000/svg">
    <path d="M9.85961 8.50094C9.85961 8.65426 9.83247 8.79766 9.77818 8.93115C9.72387 9.06464 9.63418 9.19444 9.50913 9.32055L2.70288 16.1268C2.49078 16.3375 2.21259 16.4371 1.86829 16.4257C1.52396 16.4142 1.24507 16.3031 1.0316 16.0924C0.772295 15.8358 0.659832 15.5566 0.694207 15.2547C0.728582 14.9528 0.851129 14.685 1.06185 14.4514L7.01323 8.50002L1.06185 2.54867C0.851128 2.33518 0.73431 2.05525 0.711394 1.70889C0.688477 1.36253 0.806476 1.08398 1.06539 0.873235C1.27847 0.616683 1.55197 0.505594 1.88588 0.539969C2.21983 0.574344 2.50362 0.696891 2.73725 0.90761L9.50913 7.67948C9.63418 7.80594 9.72387 7.93613 9.77818 8.07005C9.83247 8.20398 9.85961 8.34761 9.85961 8.50094Z" fill="#888888"/>
</svg>
