<svg width="26" height="25" viewBox="0 0 26 25" fill="none" xmlns="http://www.w3.org/2000/svg">
    <path d="M15.8036 24.2181C14.6331 24.2181 13.6525 23.8064 12.862 22.983C12.0714 22.1595 11.6761 21.0879 11.6761 19.7681C11.6761 18.6411 11.9452 17.6722 12.4833 16.8616C13.0215 16.051 13.6834 15.379 14.4692 14.8457C15.2549 14.3123 16.0841 13.9081 16.9565 13.633C17.829 13.3579 18.5995 13.1923 19.2681 13.1362C19.2068 11.9227 18.9438 11.0488 18.4793 10.5145C18.0148 9.98019 17.3572 9.71303 16.5065 9.71303C15.6399 9.71303 14.8287 9.97282 14.0732 10.4924C13.3176 11.012 12.3065 12.1437 11.0399 13.8877C9.68236 15.7278 8.55724 16.9807 7.66448 17.6464C6.77173 18.3121 5.80095 18.6449 4.75215 18.6449C3.7594 18.6449 2.85529 18.3121 2.03985 17.6464C1.22438 16.9807 0.81665 15.8461 0.81665 14.2428C0.81665 13.5582 1.06266 12.6668 1.55468 11.5685C2.04671 10.4702 2.89321 8.95603 4.09418 7.0261C4.74105 6.10194 5.19492 5.36341 5.45578 4.8105C5.71665 4.25761 5.84708 3.78962 5.84708 3.40653C5.84708 3.16209 5.77908 2.96764 5.64308 2.8232C5.50711 2.67875 5.30578 2.60653 5.03912 2.60653C4.84974 2.60653 4.63814 2.6581 4.40432 2.76123C4.17052 2.86436 3.91714 3.03019 3.64418 3.2587C3.35723 3.49154 3.04756 3.60664 2.71518 3.604C2.38283 3.60133 2.10023 3.47246 1.86738 3.2174C1.60167 2.96231 1.46882 2.66038 1.46882 2.3116C1.46882 1.9628 1.60167 1.66932 1.86738 1.43116C2.38381 0.969809 2.90819 0.624031 3.44055 0.393831C3.97293 0.163631 4.51907 0.0485306 5.07898 0.0485306C6.04949 0.0485306 6.84248 0.374263 7.45795 1.02573C8.07342 1.67717 8.38115 2.47753 8.38115 3.4268C8.38115 4.25773 8.17161 5.07536 7.75252 5.8797C7.33343 6.68405 6.66351 7.78261 5.74275 9.17536C4.73211 10.6696 4.08211 11.747 3.79275 12.4076C3.50337 13.0682 3.35868 13.7329 3.35868 14.4014C3.35868 15.086 3.54068 15.5341 3.90468 15.7457C4.26871 15.9572 4.64806 16.063 5.04275 16.063C5.57608 16.063 6.11654 15.8101 6.66412 15.3043C7.2117 14.7986 8.0367 13.8167 9.13912 12.3587C10.6609 10.3819 11.9906 9.0204 13.1283 8.27427C14.2659 7.52813 15.492 7.15506 16.8065 7.15506C18.2572 7.15506 19.4261 7.68465 20.313 8.74383C21.2 9.80301 21.7043 11.2312 21.8261 13.0283H23.929C24.2667 13.0283 24.5601 13.1529 24.8094 13.4022C25.0587 13.6515 25.1833 13.9449 25.1833 14.2826C25.1833 14.6425 25.0587 14.9471 24.8094 15.1964C24.5601 15.4457 24.2667 15.5703 23.929 15.5703H21.8261C21.5932 19.1423 20.796 21.4766 19.4344 22.5732C18.0728 23.6698 16.8626 24.2181 15.8036 24.2181ZM15.9036 21.6522C16.5287 21.6522 17.2251 21.2383 17.9928 20.4105C18.7604 19.5827 19.2077 17.9995 19.3348 15.6609C18.315 15.7614 17.2086 16.1792 16.0156 16.9145C14.8226 17.6498 14.2261 18.6841 14.2261 20.0174C14.2261 20.5179 14.3708 20.9154 14.6601 21.2101C14.9495 21.5048 15.364 21.6522 15.9036 21.6522Z" fill="#5F5AC9"/>
</svg>
