<svg width="30" height="30" viewBox="0 0 30 30" fill="none" xmlns="http://www.w3.org/2000/svg">
    <path d="M24.1875 25.5313L16.6562 18C16.0312 18.5417 15.3025 18.9635 14.47 19.2656C13.6376 19.5677 12.7517 19.7188 11.8125 19.7188C9.55912 19.7188 7.65203 18.9375 6.09122 17.375C4.53041 15.8125 3.75 13.9271 3.75 11.7188C3.75 9.51042 4.53125 7.625 6.09375 6.0625C7.65625 4.5 9.54688 3.71875 11.7656 3.71875C13.9844 3.71875 15.8698 4.5 17.4219 6.0625C18.974 7.625 19.75 9.51198 19.75 11.7234C19.75 12.6161 19.6042 13.4792 19.3125 14.3125C19.0208 15.1458 18.5833 15.9271 18 16.6563L25.5938 24.1875C25.7812 24.3634 25.875 24.5792 25.875 24.835C25.875 25.0908 25.7717 25.322 25.5652 25.5285C25.3759 25.7178 25.1435 25.8125 24.8681 25.8125C24.5926 25.8125 24.3657 25.7188 24.1875 25.5313ZM11.7812 17.8438C13.474 17.8438 14.9128 17.2448 16.0977 16.0469C17.2826 14.849 17.875 13.4063 17.875 11.7188C17.875 10.0313 17.2826 8.58854 16.0977 7.39063C14.9128 6.19271 13.474 5.59375 11.7812 5.59375C10.0712 5.59375 8.61762 6.19271 7.42056 7.39063C6.22352 8.58854 5.625 10.0313 5.625 11.7188C5.625 13.4063 6.22352 14.849 7.42056 16.0469C8.61762 17.2448 10.0712 17.8438 11.7812 17.8438Z" fill="#8F8F8F"/>
</svg>
