<svg width="40" height="40" viewBox="0 0 40 40" fill="none" xmlns="http://www.w3.org/2000/svg">
    <path d="M8.43084 22.1096C7.85314 22.1096 7.35823 21.9027 6.94609 21.4889C6.53395 21.0751 6.32788 20.5777 6.32788 19.9966C6.32788 19.4101 6.53503 18.9124 6.94934 18.5036C7.36362 18.0948 7.86163 17.8904 8.44338 17.8904C9.01894 17.8904 9.5151 18.096 9.93188 18.507C10.3487 18.9181 10.5571 19.4153 10.5571 19.9985C10.5571 20.5816 10.3471 21.0793 9.92721 21.4914C9.50733 21.9035 9.00853 22.1096 8.43084 22.1096ZM20.0015 22.1096C19.4184 22.1096 18.9207 21.9027 18.5086 21.4889C18.0965 21.0751 17.8904 20.5777 17.8904 19.9966C17.8904 19.4101 18.0973 18.9124 18.5111 18.5036C18.9249 18.0948 19.4223 17.8904 20.0034 17.8904C20.5899 17.8904 21.0876 18.096 21.4964 18.507C21.9052 18.9181 22.1096 19.4153 22.1096 19.9985C22.1096 20.5816 21.904 21.0793 21.493 21.4914C21.0819 21.9035 20.5847 22.1096 20.0015 22.1096ZM31.557 22.1096C30.9724 22.1096 30.4739 21.9027 30.0615 21.4889C29.6491 21.0751 29.4429 20.5777 29.4429 19.9966C29.4429 19.4101 29.6511 18.9124 30.0674 18.5036C30.4837 18.0948 30.9842 17.8904 31.5688 17.8904C32.1534 17.8904 32.6517 18.096 33.0639 18.507C33.476 18.9181 33.6821 19.4153 33.6821 19.9985C33.6821 20.5816 33.474 21.0793 33.058 21.4914C32.6419 21.9035 32.1416 22.1096 31.557 22.1096Z"/>
</svg>
