<svg width="30" height="30" viewBox="0 0 30 30" fill="none" xmlns="http://www.w3.org/2000/svg">
    <path d="M23.9368 24.3302C23.9368 24.9157 23.7283 25.4169 23.3114 25.8338C22.8945 26.2508 22.3933 26.4593 21.8078 26.4593L8.19226 26.4593C7.60472 26.4593 7.10174 26.2508 6.68332 25.8338C6.2649 25.4169 6.05569 24.9157 6.05569 24.3302L6.05569 11.3023C6.05569 10.8087 6.18297 10.357 6.43751 9.94735C6.69203 9.53771 7.02423 9.18501 7.4341 8.88926L13.7568 4.39538C14.1079 4.13134 14.5141 3.99932 14.9755 3.99932C15.4369 3.99932 15.8595 4.13134 16.2432 4.39538L22.5659 8.88926C22.9708 9.18491 23.3005 9.53758 23.555 9.94729C23.8096 10.357 23.9368 10.8087 23.9368 11.3023L23.9368 24.3302ZM15 6.19838L8.19226 10.9573L8.19226 24.3302L21.8078 24.3302L21.8078 10.9586L15 6.19838ZM15 24.3302L21.8078 24.3302L8.19226 24.3302L15 24.3302Z"/>
</svg>
