<svg width="36" height="36" viewBox="0 0 36 36" fill="none" xmlns="http://www.w3.org/2000/svg">
    <path d="M12.6443 30.2062C12.0941 30.2062 11.6273 30.0135 11.2439 29.628C10.8605 29.2425 10.6688 28.7744 10.6688 28.2236V9.75H4.77639C4.22564 9.75 3.75751 9.55743 3.37201 9.17231C2.98651 8.78716 2.79376 8.31949 2.79376 7.76929C2.79376 7.21911 2.98651 6.75231 3.37201 6.36888C3.75751 5.98546 4.22564 5.79375 4.77639 5.79375H20.5264C21.0746 5.79375 21.5406 5.98692 21.9243 6.37327C22.3081 6.75965 22.5 7.22793 22.5 7.77813C22.5 8.32831 22.3081 8.7945 21.9243 9.1767C21.5406 9.5589 21.0746 9.75 20.5264 9.75H14.625V28.2236C14.625 28.7744 14.4324 29.2425 14.0473 29.628C13.6622 30.0135 13.1945 30.2062 12.6443 30.2062ZM26.3469 30.2062C25.7967 30.2062 25.3305 30.0135 24.9483 29.628C24.5661 29.2425 24.375 28.7744 24.375 28.2236V17.4562H21.4736C20.9254 17.4562 20.4594 17.2631 20.0757 16.8767C19.6919 16.4903 19.5 16.0221 19.5 15.4719C19.5 14.9217 19.6919 14.4555 20.0757 14.0733C20.4594 13.6911 20.9254 13.5 21.4736 13.5H31.2236C31.7744 13.5 32.2425 13.6926 32.628 14.0777C33.0135 14.4628 33.2063 14.9305 33.2063 15.4807C33.2063 16.0309 33.0135 16.4977 32.628 16.8811C32.2425 17.2645 31.7744 17.4562 31.2236 17.4562H28.3313V28.2236C28.3313 28.7744 28.1381 29.2425 27.7517 29.628C27.3654 30.0135 26.8971 30.2062 26.3469 30.2062Z"/>
</svg>
