<svg width="38" height="38" viewBox="0 0 38 38" fill="none" xmlns="http://www.w3.org/2000/svg">
    <path d="M9.10417 33.0263C8.72353 33.0263 8.40363 32.896 8.14447 32.6355C7.88533 32.3751 7.75576 32.0535 7.75576 31.6709C7.75576 31.2883 7.88533 30.9675 8.14447 30.7085C8.40363 30.4495 8.72353 30.32 9.10417 30.32H28.8958C29.2765 30.32 29.5964 30.4518 29.8555 30.7154C30.1147 30.9791 30.2442 31.3022 30.2442 31.6848C30.2442 32.0674 30.1147 32.3866 29.8555 32.6425C29.5964 32.8983 29.2765 33.0263 28.8958 33.0263H9.10417ZM19 27.2669C16.2665 27.2669 14.1195 26.4761 12.5591 24.8945C10.9987 23.3129 10.2185 21.1647 10.2185 18.4501V6.55278C10.2185 6.06309 10.3964 5.64493 10.7523 5.29831C11.1081 4.95169 11.532 4.77838 12.0241 4.77838C12.5161 4.77838 12.9363 4.95169 13.2845 5.29831C13.6327 5.64493 13.8068 6.06309 13.8068 6.55278V18.4028C13.8068 20.0653 14.2633 21.3869 15.1763 22.3676C16.0893 23.3483 17.3639 23.8386 19 23.8386C20.6361 23.8386 21.9107 23.3483 22.8237 22.3676C23.7367 21.3869 24.1932 20.0653 24.1932 18.4028V6.55278C24.1932 6.06309 24.3727 5.64493 24.7316 5.29831C25.0906 4.95169 25.5161 4.77838 26.0082 4.77838C26.5003 4.77838 26.9204 4.95169 27.2686 5.29831C27.6168 5.64493 27.7909 6.06309 27.7909 6.55278V18.4501C27.7909 21.1647 27.0092 23.3129 25.4456 24.8945C23.8821 26.4761 21.7335 27.2669 19 27.2669Z"/>
</svg>
